<?xml version="1.0" encoding="UTF-8"?>
<svg version="1.2" xmlns="http://www.w3.org/2000/svg" width="360" height="360" baseProfile="tiny-ps">
<path d="M0 0 C118.8 0 237.6 0 360 0 C360 118.8 360 237.6 360 360 C241.2 360 122.4 360 0 360 C0 241.2 0 122.4 0 0 Z " fill="#E5E5E3" transform="translate(0,0)"/>
<path d="M0 0 C0.92093789 -0.00445784 1.84187578 -0.00891569 2.79072088 -0.01350862 C4.29536558 -0.01323207 4.29536558 -0.01323207 5.83040714 -0.01294994 C6.90285917 -0.01662663 7.97531119 -0.02030332 9.08026177 -0.02409142 C12.68041781 -0.03512029 16.28054497 -0.0389708 19.88071537 -0.04278088 C22.45969071 -0.04904622 25.03866514 -0.05569308 27.61763859 -0.0626936 C35.3620708 -0.08243182 43.10650427 -0.09252174 50.85095534 -0.10142139 C54.50269711 -0.1058094 58.15443745 -0.11117495 61.80617809 -0.11641026 C73.95416398 -0.13342137 86.10214899 -0.14791331 98.25014496 -0.155159 C101.4007648 -0.15706873 104.55138462 -0.15898909 107.70200443 -0.16094494 C108.48502688 -0.16142868 109.26804932 -0.16191242 110.07479972 -0.16241082 C122.74592763 -0.17070278 135.41696088 -0.19602609 148.0880475 -0.22852562 C161.11279821 -0.26165834 174.13750092 -0.27961344 187.16229397 -0.28280324 C194.46884346 -0.2849628 201.775255 -0.29362976 209.08176327 -0.31926441 C215.96086798 -0.34334444 222.83972145 -0.34675822 229.71885967 -0.33650303 C232.23664392 -0.33600874 234.75444055 -0.34229742 237.27218723 -0.35605907 C257.77392236 -0.4618017 275.55931349 1.18769201 291.23838139 15.94281483 C298.37935991 23.53010451 305.30088139 33.47705276 305.30088139 44.13422108 C187.82088139 44.13422108 70.34088139 44.13422108 -50.69911861 44.13422108 C-48.8770002 29.55727379 -40.94824946 18.8400983 -29.57411861 9.88422108 C-21.08960907 3.94743437 -10.43340236 0.02354739 0 0 Z " fill="#FBD244" transform="translate(52.69911861419678,-0.13422107696533203)"/>
<path d="M0 0 C2.15865231 -0.37473011 2.15865231 -0.37473011 4.88987732 -0.3742218 C5.92323212 -0.38123611 6.95658691 -0.38825043 8.02125549 -0.39547729 C9.15949265 -0.38783356 10.2977298 -0.38018982 11.47045898 -0.37231445 C12.66562134 -0.37596512 13.86078369 -0.37961578 15.09216309 -0.38337708 C18.37533177 -0.39010792 21.65813278 -0.38334808 24.94127154 -0.37004495 C28.37385792 -0.35874617 31.80642931 -0.3628368 35.23902893 -0.36479187 C41.00518666 -0.36567547 46.77122697 -0.35458183 52.53735352 -0.33618164 C59.20614113 -0.31502297 65.87475656 -0.31150159 72.54357094 -0.3177436 C78.95402327 -0.3234369 85.36441489 -0.31779136 91.77485847 -0.30657005 C94.50486434 -0.30192258 97.23483309 -0.30105087 99.96484184 -0.3031559 C103.77671144 -0.3035255 107.5883165 -0.29093505 111.40014648 -0.2746582 C112.53635941 -0.27713562 113.67257233 -0.27961304 114.84321594 -0.28216553 C115.87939056 -0.27508072 116.91556519 -0.26799591 117.98313904 -0.26069641 C119.33566096 -0.25761711 119.33566096 -0.25761711 120.71550655 -0.25447559 C123 0 123 0 126 2 C126.27911945 4.95637208 126.37175437 7.70041355 126.328125 10.65625 C126.32625183 11.51432251 126.32437866 12.37239502 126.32244873 13.25646973 C126.31572066 15.07222371 126.30179121 16.88796302 126.28125 18.70361328 C126.2501258 21.48874319 126.24028333 24.27330727 126.234375 27.05859375 C126.22520393 28.82031942 126.21482783 30.58203932 126.203125 32.34375 C126.19887512 33.18023071 126.19462524 34.01671143 126.19024658 34.87854004 C126.11719031 40.76561937 126.11719031 40.76561937 125 43 C111.47 43 97.94 43 84 43 C84.01047363 45.98329346 84.02094727 48.96658691 84.03173828 52.0402832 C84.06483708 61.883026 84.0869533 71.72577122 84.10362434 81.56855488 C84.1140738 87.53783925 84.12825421 93.50706673 84.15087891 99.47631836 C84.17256583 105.23400115 84.18455987 110.99162912 84.18975449 116.74934959 C84.19345771 118.94904633 84.20068891 121.14873998 84.21146011 123.34841347 C84.2259198 126.42285333 84.22798025 129.49706496 84.22705078 132.5715332 C84.23424133 133.48647049 84.24143188 134.40140778 84.24884033 135.34407043 C84.246091 136.18119568 84.24334167 137.01832092 84.24050903 137.8808136 C84.24235262 138.60810826 84.24419621 139.33540293 84.24609566 140.08473682 C84 142 84 142 82 145 C79.04388941 145.29152022 76.30058955 145.39583639 73.34375 145.36328125 C72.05664124 145.36402901 72.05664124 145.36402901 70.74353027 145.36479187 C68.92779222 145.36244945 67.11205104 145.35271102 65.29638672 145.33618164 C62.51109905 145.31259399 59.72676834 145.31561857 56.94140625 145.32226562 C55.17968177 145.3166889 53.41796134 145.30957905 51.65625 145.30078125 C50.81976929 145.30169266 49.98328857 145.30260406 49.12145996 145.30354309 C43.23101979 145.23101979 43.23101979 145.23101979 41 143 C40.75390434 141.19216728 40.75390434 141.19216728 40.75949097 138.96310425 C40.75674164 138.11893951 40.75399231 137.27477478 40.75115967 136.4050293 C40.75835022 135.477146 40.76554077 134.5492627 40.77294922 133.59326172 C40.77265717 132.61761261 40.77236511 131.6419635 40.77206421 130.63674927 C40.77346132 127.40097259 40.78904049 124.16542412 40.8046875 120.9296875 C40.80841627 118.69052252 40.81126388 116.45135591 40.81326294 114.21218872 C40.82091008 108.3102368 40.84056785 102.40838286 40.8626709 96.50646973 C40.88310608 90.48739955 40.89225967 84.46831359 40.90234375 78.44921875 C40.92381271 66.63276938 40.95796167 54.81639283 41 43 C39.15269287 43.01571045 39.15269287 43.01571045 37.26806641 43.03173828 C32.70966485 43.06787089 28.15127602 43.09087585 23.59277344 43.10986328 C21.61781691 43.11993627 19.64287534 43.13359521 17.66796875 43.15087891 C14.83329582 43.17507039 11.99881962 43.18646991 9.1640625 43.1953125 C8.27756012 43.20563507 7.39105774 43.21595764 6.47769165 43.22659302 C4.31714048 43.2269907 2.15706282 43.12272534 0 43 C-2.59824326 40.40175674 -2.24817394 38.59672087 -2.27789307 35.05665588 C-2.2738446 34.245186 -2.26979614 33.43371613 -2.265625 32.59765625 C-2.26753845 31.76415146 -2.2694519 30.93064667 -2.27142334 30.07188416 C-2.2727855 28.30744119 -2.26908689 26.54298821 -2.26074219 24.77856445 C-2.25005638 22.07675637 -2.26062932 19.37561526 -2.2734375 16.67382812 C-2.27211565 14.96093603 -2.26955272 13.24804435 -2.265625 11.53515625 C-2.26967346 10.7257106 -2.27372192 9.91626495 -2.27789307 9.08229065 C-2.24546956 5.20387423 -2.20063048 3.30094572 0 0 Z " fill="#323232" transform="translate(77,94)"/>
<path d="M0 0 C1.25169228 -0.00074776 1.25169228 -0.00074776 2.52867126 -0.00151062 C4.29135522 0.00082865 6.05404259 0.01054855 7.81665039 0.02709961 C10.52064729 0.05072275 13.22366032 0.04765592 15.92773438 0.04101562 C17.63932882 0.04659137 19.3509191 0.0537006 21.0625 0.0625 C21.87396988 0.06158859 22.68543976 0.06067719 23.52149963 0.05973816 C29.23380812 0.13224562 29.23380812 0.13224562 31.46484375 2.36328125 C31.71931934 4.54808998 31.71931934 4.54808998 31.72554016 7.3175354 C31.73262497 8.36575974 31.73970978 9.41398407 31.74700928 10.49397278 C31.74453186 11.6491893 31.74205444 12.80440582 31.73950195 13.99462891 C31.74461288 15.20792374 31.74972382 16.42121857 31.75498962 17.67127991 C31.76654011 21.00898785 31.76895271 24.34644803 31.76642632 27.6841588 C31.76535648 30.47875451 31.77024174 33.27332737 31.77503175 36.06791818 C31.78614606 42.67713204 31.78655742 49.28628912 31.78051758 55.89550781 C31.77451265 62.67881346 31.78669491 69.46190984 31.80808765 76.24517977 C31.82582511 82.08747338 31.83168499 87.92970122 31.8284499 93.7720207 C31.82665175 97.25235436 31.82912148 100.73253971 31.84316444 104.21284866 C31.94458594 131.73617147 29.80467376 158.03778814 9.84375 179.11328125 C6.01377832 182.73571752 1.99010765 185.66884931 -2.53515625 188.36328125 C-3.69337891 189.05550781 -3.69337891 189.05550781 -4.875 189.76171875 C-18.90803332 197.07751811 -35.22823345 197.73342747 -50.72265625 197.73828125 C-51.3954361 197.74018463 -52.06821594 197.74208801 -52.76138306 197.74404907 C-64.15804819 197.74038931 -64.15804819 197.74038931 -66.53515625 195.36328125 C-66.74712639 192.66212218 -66.83913304 190.06603587 -66.8359375 187.36328125 C-66.84022263 186.57179688 -66.84450775 185.7803125 -66.84892273 184.96484375 C-66.85466923 183.29037432 -66.85516393 181.61587993 -66.85083008 179.94140625 C-66.84766854 177.37326713 -66.87112935 174.80627795 -66.89648438 172.23828125 C-66.89875711 170.61328271 -66.89946098 168.98828106 -66.8984375 167.36328125 C-66.90764725 166.59242188 -66.91685699 165.8215625 -66.92634583 165.02734375 C-66.9074707 162.86328125 -66.9074707 162.86328125 -66.53515625 159.36328125 C-63.08338152 157.0620981 -61.81691245 157.13371875 -57.7578125 157.16015625 C-56.60345703 157.14855469 -55.44910156 157.13695312 -54.25976562 157.125 C-51.85351526 157.1173 -49.44716076 157.12465353 -47.04101562 157.1484375 C-37.53081747 157.0117514 -29.86406065 154.74635746 -22.42236328 148.62548828 C-14.00118945 139.91587178 -11.78628057 129.10095507 -11.92333984 117.39038086 C-11.91767502 116.15474396 -11.91201019 114.91910706 -11.90617371 113.64602661 C-11.8973588 110.9854438 -11.89732107 108.32670357 -11.91300583 105.66633415 C-11.93753478 101.45955027 -11.92574608 97.25331915 -11.90933228 93.04652405 C-11.88496807 85.64486801 -11.89060153 78.24346962 -11.90313721 70.84179688 C-11.92181487 59.66939999 -11.91689253 48.49704912 -11.88310301 37.32468802 C-11.87159322 33.14225414 -11.8760187 28.96022869 -11.89312339 24.77781761 C-11.90285682 21.57574473 -11.89385396 18.37370796 -11.88818359 15.17163086 C-11.89747391 14.01372543 -11.90676422 12.85582001 -11.91633606 11.66282654 C-11.91102371 10.6074469 -11.90571136 9.55206726 -11.90023804 8.46470642 C-11.90212317 7.54651595 -11.90400829 6.62832548 -11.90595055 5.68231106 C-11.53515625 3.36328125 -11.53515625 3.36328125 -10.24965858 1.56771183 C-7.22302481 -0.55848549 -3.56789869 -0.040595 0 0 Z " fill="#111111" transform="translate(246.53515625,93.63671875)"/>
<path d="M0 0 C0.33 0 0.66 0 1 0 C1.13535156 0.71542969 1.27070313 1.43085938 1.41015625 2.16796875 C4.77316036 17.73444885 12.90923634 30.5644909 26.20703125 39.4296875 C35.1120368 44.43641789 44.14434377 47.05266757 54.2645874 47.55342102 C55.51647877 47.6165717 55.51647877 47.6165717 56.79366088 47.68099815 C67.44796336 48.17054132 78.10334217 48.14804704 88.76660156 48.14526367 C91.08986464 48.14826341 93.41312722 48.15166778 95.73638916 48.15544128 C101.98814061 48.16419736 108.23987833 48.16661567 114.49163532 48.16725707 C118.40706077 48.16797175 122.32248281 48.1701138 126.23790741 48.17275429 C139.22000126 48.18150223 152.20208658 48.18617749 165.18418339 48.18542381 C165.88040482 48.18538386 166.57662626 48.1853439 167.29394531 48.18530273 C168.33957601 48.18524141 168.33957601 48.18524141 169.40633056 48.18517885 C180.71789125 48.18477188 192.02941874 48.19436179 203.34096983 48.2084411 C215.00450464 48.22284227 226.66802175 48.22952668 238.33156562 48.22884732 C244.86044544 48.22859327 251.38928752 48.23139382 257.91815948 48.24202538 C264.05460177 48.25174792 270.1909705 48.25175716 276.32741547 48.24450874 C278.56903695 48.24346844 280.81066312 48.24579256 283.05227661 48.2518692 C306.12773929 48.31033799 325.80028823 47.32429603 343.95703125 31.26953125 C351.79722391 23.25235907 357.42493139 11.02548028 359 0 C359.33 0 359.66 0 360 0 C360 20.13 360 40.26 360 61 C241.2 61 122.4 61 0 61 C0 40.87 0 20.74 0 0 Z " fill="#ADADAA" transform="translate(0,299)"/>
<path d="M0 0 C16.1503192 -0.02332909 32.30063296 -0.04097922 48.45096493 -0.05181217 C55.94933064 -0.05697511 63.44768591 -0.06401776 70.94604492 -0.07543945 C77.47930504 -0.08538637 84.01255759 -0.09185344 90.54582506 -0.09408849 C94.00721807 -0.09539559 97.46858942 -0.09848136 100.92997551 -0.10573006 C104.78787527 -0.11374407 108.64575357 -0.11399113 112.50366211 -0.11352539 C114.23750656 -0.1189183 114.23750656 -0.1189183 116.00637817 -0.12442017 C117.05110794 -0.1230455 118.09583771 -0.12167084 119.17222595 -0.12025452 C120.54247122 -0.12163721 120.54247122 -0.12163721 121.94039822 -0.12304783 C124 0 124 0 125 1 C125.10109386 3.86095624 125.13969428 6.69726057 125.1328125 9.55859375 C125.13376923 10.41808121 125.13472595 11.27756866 125.13571167 12.1631012 C125.13639357 13.98479282 125.13453861 15.80648685 125.13037109 17.62817383 C125.12502946 20.4220932 125.13031239 23.21585133 125.13671875 26.00976562 C125.13605784 27.77604202 125.13477642 29.54231832 125.1328125 31.30859375 C125.13483673 32.14821152 125.13686096 32.98782928 125.13894653 33.85289001 C125.11495472 39.77009055 125.11495472 39.77009055 124 42 C110.47 42 96.94 42 83 42 C83.01047363 44.98329346 83.02094727 47.96658691 83.03173828 51.0402832 C83.06483708 60.883026 83.0869533 70.72577122 83.10362434 80.56855488 C83.1140738 86.53783925 83.12825421 92.50706673 83.15087891 98.47631836 C83.17256583 104.23400115 83.18455987 109.99162912 83.18975449 115.74934959 C83.19345771 117.94904633 83.20068891 120.14873998 83.21146011 122.34841347 C83.2259198 125.42285333 83.22798025 128.49706496 83.22705078 131.5715332 C83.23424133 132.48647049 83.24143188 133.40140778 83.24884033 134.34407043 C83.246091 135.18119568 83.24334167 136.01832092 83.24050903 136.8808136 C83.24235262 137.60810826 83.24419621 138.33540293 83.24609566 139.08473682 C83 141 83 141 81 144 C78.04388941 144.29152022 75.30058955 144.39583639 72.34375 144.36328125 C71.05664124 144.36402901 71.05664124 144.36402901 69.74353027 144.36479187 C67.92779222 144.36244945 66.11205104 144.35271102 64.29638672 144.33618164 C61.51109905 144.31259399 58.72676834 144.31561857 55.94140625 144.32226562 C54.17968177 144.3166889 52.41796134 144.30957905 50.65625 144.30078125 C49.81976929 144.30169266 48.98328857 144.30260406 48.12145996 144.30354309 C42.23101979 144.23101979 42.23101979 144.23101979 40 142 C39.75390434 140.19216728 39.75390434 140.19216728 39.75949097 137.96310425 C39.75674164 137.11893951 39.75399231 136.27477478 39.75115967 135.4050293 C39.75835022 134.477146 39.76554077 133.5492627 39.77294922 132.59326172 C39.77265717 131.61761261 39.77236511 130.6419635 39.77206421 129.63674927 C39.77346132 126.40097259 39.78904049 123.16542412 39.8046875 119.9296875 C39.80841627 117.69052252 39.81126388 115.45135591 39.81326294 113.21218872 C39.82091008 107.3102368 39.84056785 101.40838286 39.8626709 95.50646973 C39.88310608 89.48739955 39.89225967 83.46831359 39.90234375 77.44921875 C39.92381271 65.63276938 39.95796167 53.81639283 40 42 C38.15269287 42.01571045 38.15269287 42.01571045 36.26806641 42.03173828 C31.70966485 42.06787089 27.15127602 42.09087585 22.59277344 42.10986328 C20.61781691 42.11993627 18.64287534 42.13359521 16.66796875 42.15087891 C13.83329582 42.17507039 10.99881962 42.18646991 8.1640625 42.1953125 C7.27756012 42.20563507 6.39105774 42.21595764 5.47769165 42.22659302 C3.31714048 42.2269907 1.15706282 42.12272534 -1 42 C-3 40 -3 40 -3.22705078 36.28466797 C-3.22673351 34.68713948 -3.21539982 33.08958973 -3.1953125 31.4921875 C-3.1924826 30.65156769 -3.18965271 29.81094788 -3.18673706 28.94485474 C-3.1755243 26.25475954 -3.15041803 23.5649949 -3.125 20.875 C-3.1149716 19.05339022 -3.10584551 17.23177523 -3.09765625 15.41015625 C-3.07558142 10.93997642 -3.04104434 6.47004429 -3 2 C-2.34 1.67 -1.68 1.34 -1 1 C-0.67 13.21 -0.34 25.42 0 38 C6.19300183 40.07251788 6.19300183 40.07251788 12.0625 39.4375 C14 39 14 39 16 40 C17.485 39.505 17.485 39.505 19 39 C19.66 39.33 20.32 39.66 21 40 C22.485 39.505 22.485 39.505 24 39 C24.66 39.33 25.32 39.66 26 40 C27.2065625 39.7525 27.2065625 39.7525 28.4375 39.5 C31 39 31 39 34 40 C34.825 39.79375 35.65 39.5875 36.5 39.375 C39 39 39 39 40.75 39.9375 C42.34154304 42.56354602 42.54560476 45.06415239 42.8203125 48.0859375 C43.01286226 50.13701103 43.48586459 52.00772528 44 54 C44.3496418 56.33094534 44.68554487 58.66404762 45 61 C45.99 60.67 46.98 60.34 48 60 C47.34 58.35 46.68 56.7 46 55 C48.8125 54.375 48.8125 54.375 52 54 C52.99 54.66 53.98 55.32 55 56 C55.99 55.34 56.98 54.68 58 54 C62 59.5 62 59.5 62 64 C62.84454356 60.62182575 63.10844919 58.32534757 62 55 C62.66 54.67 63.32 54.34 64 54 C68 59.625 68 59.625 68 63 C68.66 63 69.32 63 70 63 C70.33 64.32 70.66 65.64 71 67 C71.66 66.34 72.32 65.68 73 65 C73 64.34 73 63.68 73 63 C72.154375 62.21625 71.30875 61.4325 70.4375 60.625 C69.633125 59.75875 68.82875 58.8925 68 58 C68.1875 55.6875 68.1875 55.6875 69 54 C71.31 55.32 73.62 56.64 76 58 C75.505 56.02 75.505 56.02 75 54 C76.32 53.67 77.64 53.34 79 53 C79.02578125 52.22914063 79.0515625 51.45828125 79.078125 50.6640625 C79.16320312 49.15972656 79.16320312 49.15972656 79.25 47.625 C79.29640625 46.62726563 79.3428125 45.62953125 79.390625 44.6015625 C80 42 80 42 81.859375 40.7109375 C82.56578125 40.47632813 83.2721875 40.24171875 84 40 C84.99 39.67 85.98 39.34 87 39 C87.66 39.33 88.32 39.66 89 40 C89.99 39.67 90.98 39.34 92 39 C92.66 39.33 93.32 39.66 94 40 C94.99 39.67 95.98 39.34 97 39 C97.66 39.33 98.32 39.66 99 40 C99.99 39.67 100.98 39.34 102 39 C102.66 39.33 103.32 39.66 104 40 C106.3381615 39.70241581 108.67182036 39.36760731 111 39 C114 39 114 39 117 40 C119.23044679 39.63562767 119.23044679 39.63562767 121 38 C122.69967317 26.1022878 122.58581499 14.01136525 123 2 C82.41 1.67 41.82 1.34 0 1 C0 0.67 0 0.34 0 0 Z " fill="#1F1F1F" transform="translate(78,95)"/>
<path d="M0 0 C1.26092972 0.00212242 1.26092972 0.00212242 2.54733276 0.00428772 C5.23732025 0.00989388 7.92722509 0.02244739 10.6171875 0.03515625 C12.43880088 0.04017046 14.26041557 0.0447335 16.08203125 0.04882812 C20.55211527 0.05986531 25.02213736 0.07713405 29.4921875 0.09765625 C28.5021875 0.75765625 27.5121875 1.41765625 26.4921875 2.09765625 C27.4821875 2.42765625 28.4721875 2.75765625 29.4921875 3.09765625 C30.84742261 13.43132394 30.53902534 23.58643215 29.9921875 33.97265625 C29.63691859 41.10443956 29.44865228 48.19004282 29.5234375 55.33203125 C29.48332931 58.88160599 29.14502939 62.35793871 28.7109375 65.87890625 C28.47248311 68.29751506 28.45797935 70.66887769 28.4921875 73.09765625 C27.5021875 73.42765625 26.5121875 73.75765625 25.4921875 74.09765625 C25.8221875 75.41765625 26.1521875 76.73765625 26.4921875 78.09765625 C25.8321875 78.09765625 25.1721875 78.09765625 24.4921875 78.09765625 C23.9971875 79.58265625 23.9971875 79.58265625 23.4921875 81.09765625 C21.1171875 81.28515625 21.1171875 81.28515625 18.4921875 81.09765625 C17.8321875 80.10765625 17.1721875 79.11765625 16.4921875 78.09765625 C14.36854269 77.87156288 14.36854269 77.87156288 12.8671875 79.59765625 C12.4134375 80.09265625 11.9596875 80.58765625 11.4921875 81.09765625 C10.8321875 80.43765625 10.1721875 79.77765625 9.4921875 79.09765625 C9.4921875 78.10765625 9.4921875 77.11765625 9.4921875 76.09765625 C8.5021875 77.08765625 8.5021875 77.08765625 7.4921875 78.09765625 C6.8321875 77.10765625 6.1721875 76.11765625 5.4921875 75.09765625 C4.5021875 75.09765625 3.5121875 75.09765625 2.4921875 75.09765625 C2.3478125 75.71640625 2.2034375 76.33515625 2.0546875 76.97265625 C1.4921875 79.09765625 1.4921875 79.09765625 0.4921875 81.09765625 C-0.1678125 81.09765625 -0.8278125 81.09765625 -1.5078125 81.09765625 C-1.5078125 80.10765625 -1.5078125 79.11765625 -1.5078125 78.09765625 C-2.1678125 78.09765625 -2.8278125 78.09765625 -3.5078125 78.09765625 C-3.7553125 77.49953125 -4.0028125 76.90140625 -4.2578125 76.28515625 C-5.34334097 73.96805598 -5.34334097 73.96805598 -7.55181885 72.88383484 C-9.5078125 71.09765625 -9.5078125 71.09765625 -10.02679443 68.079422 C-10.03567688 66.84254135 -10.04455933 65.60566071 -10.05371094 64.33129883 C-10.06404861 63.64811081 -10.07438629 62.96492279 -10.08503723 62.2610321 C-10.11451799 60.00451149 -10.1159654 57.74888574 -10.1171875 55.4921875 C-10.13216573 53.92704044 -10.14889213 52.36190922 -10.16729736 50.79679871 C-10.21102388 46.67863244 -10.23098148 42.56067938 -10.24603271 38.44232178 C-10.26558489 34.23941411 -10.30755692 30.03673735 -10.34765625 25.83398438 C-10.42301564 17.588602 -10.47327213 9.34331015 -10.5078125 1.09765625 C-7.22889325 -0.54180338 -3.60167716 -0.02264553 0 0 Z " fill="#303030" transform="translate(246.5078125,93.90234375)"/>
<path d="M0 0 C0.33 0 0.66 0 1 0 C1.02336727 10.10255597 1.04103753 20.20510531 1.05181217 30.30768299 C1.05698842 35.00078613 1.06398811 39.69387053 1.07543945 44.38696289 C1.08645828 48.93223436 1.0923162 53.47748802 1.09487724 58.02277184 C1.09669782 59.74033577 1.10025094 61.45789894 1.10573006 63.17545509 C1.1423447 75.15045602 0.74041762 87.04769407 0 99 C-1.32 98.67 -2.64 98.34 -4 98 C-4.1546875 98.8971875 -4.1546875 98.8971875 -4.3125 99.8125 C-5.08876455 102.28243264 -6.07088921 103.32251235 -8 105 C-9.65 104.34 -11.3 103.68 -13 103 C-13.99 103.99 -13.99 103.99 -15 105 C-15.33 105 -15.66 105 -16 105 C-15.79375 105.763125 -15.5875 106.52625 -15.375 107.3125 C-15 110 -15 110 -17 113 C-17.66 113 -18.32 113 -19 113 C-19 112.34 -19 111.68 -19 111 C-19.99 111 -20.98 111 -22 111 C-21.34 112.32 -20.68 113.64 -20 115 C-20.66 115 -21.32 115 -22 115 C-22.33 115.66 -22.66 116.32 -23 117 C-23 116.34 -23 115.68 -23 115 C-23.66 114.67 -24.32 114.34 -25 114 C-24.01 111.03 -23.02 108.06 -22 105 C-22.495 104.505 -22.495 104.505 -23 104 C-23.66 105.65 -24.32 107.3 -25 109 C-25.99 108.01 -26.98 107.02 -28 106 C-27.67 105.01 -27.34 104.02 -27 103 C-27.66 103 -28.32 103 -29 103 C-29 103.66 -29 104.32 -29 105 C-29.99 105.495 -29.99 105.495 -31 106 C-31.40729228 108.32156597 -31.74438677 110.6568787 -32 113 C-32.99 113 -33.98 113 -35 113 C-38.68074507 108.75298646 -38.96159118 103.42524637 -39 98 C-38.505 97.01 -38.505 97.01 -38 96 C-38.33 96 -38.66 96 -39 96 C-39 80.16 -39 64.32 -39 48 C-37.02 48.66 -35.04 49.32 -33 50 C-33 51.65 -33 53.3 -33 55 C-32.34 55 -31.68 55 -31 55 C-30.34 55.66 -29.68 56.32 -29 57 C-29 55.35 -29 53.7 -29 52 C-28.01 52 -27.02 52 -26 52 C-24.515 51.505 -24.515 51.505 -23 51 C-22.34 51.66 -21.68 52.32 -21 53 C-20.34 51.68 -19.68 50.36 -19 49 C-17.90341064 52.28976808 -18.20046862 53.71303767 -19 57 C-15.95865509 55.33075929 -15.95865509 55.33075929 -15 53 C-11.125 54.875 -11.125 54.875 -10 56 C-8.67405895 56.36162029 -7.34061543 56.69728039 -6 57 C-5.505 56.01 -5.505 56.01 -5 55 C-4.34 55 -3.68 55 -3 55 C-3.66 53.02 -4.32 51.04 -5 49 C-4.01 49 -3.02 49 -2 49 C-2.01160156 48.38253906 -2.02320313 47.76507813 -2.03515625 47.12890625 C-2.11161198 39.95298943 -1.857529 32.96183137 0 26 C-0.66 25.67 -1.32 25.34 -2 25 C-1.34 25 -0.68 25 0 25 C-0.25124634 23.91295776 -0.25124634 23.91295776 -0.50756836 22.80395508 C-0.98054649 20.11077023 -1.03685023 17.85686512 -0.87890625 15.13671875 C-0.83056641 14.25048828 -0.78222656 13.36425781 -0.73242188 12.45117188 C-0.67634766 11.53916016 -0.62027344 10.62714844 -0.5625 9.6875 C-0.51029297 8.75615234 -0.45808594 7.82480469 -0.40429688 6.86523438 C-0.2751852 4.57643647 -0.14024585 2.28813814 0 0 Z " fill="#1E1E1E" transform="translate(276,117)"/>
<path d="M0 0 C0.33 0 0.66 0 1 0 C1.01030746 0.6504982 1.02061493 1.3009964 1.03123474 1.97120667 C1.14115116 8.86832108 1.25554855 15.76535175 1.37231445 22.66235352 C1.41508294 25.22125461 1.45678567 27.78017378 1.49731445 30.33911133 C1.75531652 46.57413057 2.18262005 62.78288681 3 79 C4.175625 78.690625 4.175625 78.690625 5.375 78.375 C6.674375 78.189375 6.674375 78.189375 8 78 C10.1385485 80.1385485 10.42655063 81.13275314 11 84 C13.475 83.01 13.475 83.01 16 82 C19 86.625 19 86.625 19 90 C19.66 88.35 20.32 86.7 21 85 C21.66 85 22.32 85 23 85 C23.495 83.515 23.495 83.515 24 82 C26.97 81.505 26.97 81.505 30 81 C30 84.11257569 29.82638376 86.10765685 29 89 C28.01 88.01 27.02 87.02 26 86 C26.59861742 88.35171131 27.26924352 90.6859378 28 93 C28.66 93.33 29.32 93.66 30 94 C30.33 91.03 30.66 88.06 31 85 C31.66 85 32.32 85 33 85 C33 84.01 33 83.02 33 82 C33.99 82 34.98 82 36 82 C36.33 80.02 36.66 78.04 37 76 C37.99 75.67 38.98 75.34 40 75 C41.28571429 83.42857143 41.28571429 83.42857143 40 88 C40.99 88.495 40.99 88.495 42 89 C42.02687279 90.81242052 42.04633715 92.62495233 42.0625 94.4375 C42.07410156 95.44683594 42.08570313 96.45617187 42.09765625 97.49609375 C42 100 42 100 41 101 C38.13905783 101.11349161 35.30316544 101.16418492 32.44140625 101.16796875 C31.58191879 101.17129715 30.72243134 101.17462555 29.8368988 101.17805481 C28.01521339 101.1831277 26.19351864 101.18546302 24.37182617 101.18530273 C21.5778071 101.18748803 18.78418343 101.20563644 15.99023438 101.22460938 C14.22395969 101.2275434 12.45768312 101.22952814 10.69140625 101.23046875 C9.85178848 101.23765427 9.01217072 101.24483978 8.14710999 101.25224304 C2.22882181 101.22882181 2.22882181 101.22882181 0 99 C-0.24609566 97.20778465 -0.24609566 97.20778465 -0.24050903 95.00106812 C-0.24325836 94.16531754 -0.24600769 93.32956696 -0.24884033 92.4684906 C-0.24164978 91.54995804 -0.23445923 90.63142548 -0.22705078 89.68505859 C-0.22734283 88.71916306 -0.22763489 87.75326752 -0.22793579 86.75810242 C-0.22653872 83.55479045 -0.21095974 80.351709 -0.1953125 77.1484375 C-0.19158371 74.93169278 -0.18873611 72.71494642 -0.18673706 70.49819946 C-0.17909004 64.65543084 -0.15943237 58.81276118 -0.1373291 52.97003174 C-0.11689368 47.01128478 -0.10774028 41.05252188 -0.09765625 35.09375 C-0.07618749 23.39578978 -0.04203867 11.69790311 0 0 Z M18 82 C18.66 82 19.32 82 20 82 C19.67 82.99 19.34 83.98 19 85 C18.34 84.67 17.68 84.34 17 84 C17.33 83.34 17.66 82.68 18 82 Z " fill="#161616" transform="translate(118,138)"/>
<path d="M0 0 C0.33 0 0.66 0 1 0 C1 16.5 1 33 1 50 C-15.17 50 -31.34 50 -48 50 C-48 49.67 -48 49.34 -48 49 C-47.05640625 48.79246094 -46.1128125 48.58492188 -45.140625 48.37109375 C-29.28635802 44.66339167 -16.6173954 37.13065583 -7.625 23.125 C-3.60267669 15.90077059 -1.21823671 8.1537427 0 0 Z " fill="#EDEDEB" transform="translate(359,310)"/>
<path d="M0 0 C0.33 0 0.66 0 1 0 C1.14695313 0.87140625 1.29390625 1.7428125 1.4453125 2.640625 C3.70185313 14.62363389 7.71915742 23.93050574 16 33 C16 33.66 16 34.32 16 35 C16.56460937 35.26039063 17.12921875 35.52078125 17.7109375 35.7890625 C20.21616066 37.1143512 22.35386845 38.68089861 24.625 40.375 C32.51632993 45.94058606 40.53089469 48.46882552 50 50 C50 50.33 50 50.66 50 51 C33.5 51 17 51 0 51 C0 34.17 0 17.34 0 0 Z " fill="#FCFCFB" transform="translate(0,309)"/>
<path d="M0 0 C0.99 -0.66 1.98 -1.32 3 -2 C7 3.5 7 3.5 7 8 C7.84454356 4.62182575 8.10844919 2.32534757 7 -1 C7.66 -1.33 8.32 -1.66 9 -2 C13 3.625 13 3.625 13 7 C13.66 7 14.32 7 15 7 C15.33 8.32 15.66 9.64 16 11 C16.66 10.34 17.32 9.68 18 9 C18 8.34 18 7.68 18 7 C17.154375 6.21625 16.30875 5.4325 15.4375 4.625 C14.633125 3.75875 13.82875 2.8925 13 2 C13.1875 -0.3125 13.1875 -0.3125 14 -2 C17.465 -0.02 17.465 -0.02 21 2 C20.505 0.02 20.505 0.02 20 -2 C22.475 -1.01 22.475 -1.01 25 0 C24.125 5.75 24.125 5.75 23 8 C23.66 8.33 24.32 8.66 25 9 C24.45276317 12.37462715 23.9451 14.08235 22 17 C21.01 16.34 20.02 15.68 19 15 C18.67 15.66 18.34 16.32 18 17 C18.99 17 19.98 17 21 17 C21 17.66 21 18.32 21 19 C21.66 19 22.32 19 23 19 C23.495 20.485 23.495 20.485 24 22 C22.02 22.99 22.02 22.99 20 24 C19.34 23.01 18.68 22.02 18 21 C17.67 21.66 17.34 22.32 17 23 C16.34 22.34 15.68 21.68 15 21 C14.01 21 13.02 21 12 21 C11.01 21 10.02 21 9 21 C8.67 21.66 8.34 22.32 8 23 C7.67 22.34 7.34 21.68 7 21 C5.68 21.99 4.36 22.98 3 24 C3 23.01 3 22.02 3 21 C1.7763932 20.9254644 1.7763932 20.9254644 0 22 C-0.66 21.67 -1.32 21.34 -2 21 C-2.33 21.66 -2.66 22.32 -3 23 C-4.32 23 -5.64 23 -7 23 C-7.99 23.33 -8.98 23.66 -10 24 C-10 23.01 -10 22.02 -10 21 C-10.33 20.29875 -10.66 19.5975 -11 18.875 C-12.38453555 14.8944603 -12.1636713 11.17361811 -12 7 C-11.01 7 -10.02 7 -9 7 C-9 6.01 -9 5.02 -9 4 C-8.34 4 -7.68 4 -7 4 C-7.66 2.35 -8.32 0.7 -9 -1 C-5.22102349 -2.0497157 -3.35080929 -2.10976881 0 0 Z " fill="#282828" transform="translate(133,151)"/>
<path d="M0 0 C0.33 0 0.66 0 1 0 C1.04898438 1.03640625 1.09796875 2.0728125 1.1484375 3.140625 C1.22349597 4.51044208 1.29904247 5.88023248 1.375 7.25 C1.4059375 7.93191406 1.436875 8.61382812 1.46875 9.31640625 C1.70888571 13.43873593 1.97564992 16.97564992 5 20 C5.66 19.01 6.32 18.02 7 17 C10.68754757 17.49831724 12.60490662 18.10067643 15 21 C14.67 20.01 14.34 19.02 14 18 C14 17.01 14 16.02 14 15 C14.66 15 15.32 15 16 15 C16.33 14.01 16.66 13.02 17 12 C17.99 12.99 18.98 13.98 20 15 C21.32 14.01 22.64 13.02 24 12 C25.32 13.65 26.64 15.3 28 17 C26.625 18.5 26.625 18.5 25 20 C24.34 20 23.68 20 23 20 C23.66 20.66 24.32 21.32 25 22 C25.33 21.34 25.66 20.68 26 20 C27.32 20 28.64 20 30 20 C30.33 21.32 30.66 22.64 31 24 C31.66 23.01 32.32 22.02 33 21 C32.505 19.515 32.505 19.515 32 18 C31.01 18 30.02 18 29 18 C29.33 16.02 29.66 14.04 30 12 C31.32 12.66 32.64 13.32 34 14 C34.99 13.34 35.98 12.68 37 12 C37.22114415 14.79119779 37.42743301 17.5821212 37.625 20.375 C37.68945312 21.1690625 37.75390625 21.963125 37.8203125 22.78125 C37.96058587 24.85028224 37.98758237 26.92625536 38 29 C37.34 29.66 36.68 30.32 36 31 C36 31.66 36 32.32 36 33 C36 33.66 36 34.32 36 35 C35.34 35 34.68 35 34 35 C33.67 35.99 33.34 36.98 33 38 C30.625 38.1875 30.625 38.1875 28 38 C27.34 37.01 26.68 36.02 26 35 C23.87635519 34.77390663 23.87635519 34.77390663 22.375 36.5 C21.92125 36.995 21.4675 37.49 21 38 C20.34 37.34 19.68 36.68 19 36 C19 35.01 19 34.02 19 33 C18.34 33.66 17.68 34.32 17 35 C16.34 34.01 15.68 33.02 15 32 C14.01 32 13.02 32 12 32 C11.7834375 32.928125 11.7834375 32.928125 11.5625 33.875 C11 36 11 36 10 38 C9.34 38 8.68 38 8 38 C8 37.01 8 36.02 8 35 C7.34 35 6.68 35 6 35 C5.7525 34.401875 5.505 33.80375 5.25 33.1875 C4.16162145 30.86964799 4.16162145 30.86964799 1.94628906 29.7644043 C0 28 0 28 -0.45410156 25.08911133 C-0.4331543 23.9317749 -0.41220703 22.77443848 -0.390625 21.58203125 C-0.37773437 20.32841797 -0.36484375 19.07480469 -0.3515625 17.78320312 C-0.31804687 16.47287109 -0.28453125 15.16253906 -0.25 13.8125 C-0.22993307 12.4772399 -0.21168262 11.14195117 -0.1953125 9.80664062 C-0.14809803 6.53703854 -0.08225184 3.26887808 0 0 Z M26 12 C26.99 12.495 26.99 12.495 28 13 C27.01 13.495 27.01 13.495 26 14 C26 13.34 26 12.68 26 12 Z " fill="#272727" transform="translate(237,137)"/>
<path d="M0 0 C15.84 0 31.68 0 48 0 C48 9.9 48 19.8 48 30 C46.68 30.33 45.36 30.66 44 31 C44.495 32.98 44.495 32.98 45 35 C42.44300708 32.67683239 40.87908487 30.25104865 39.1875 27.25 C32.28813047 15.6273457 22.01471146 6.86841118 8.8359375 3.09375 C5.89869006 2.35083964 2.95884504 1.65094591 0 1 C0 0.67 0 0.34 0 0 Z " fill="#FDFDFC" transform="translate(312,0)"/>
<path d="M0 0 C15.84 0 31.68 0 48 0 C48 0.33 48 0.66 48 1 C47.31035156 1.17015625 46.62070312 1.3403125 45.91015625 1.515625 C35.49957877 4.20038298 27.89484327 7.74590582 19.3828125 14.390625 C17 16 17 16 14 16 C13.06027344 16.01160156 12.12054688 16.02320312 11.15234375 16.03515625 C9.56099609 16.04869141 9.56099609 16.04869141 7.9375 16.0625 C6.87402344 16.07410156 5.81054688 16.08570312 4.71484375 16.09765625 C2 16 2 16 0 15 C0 10.05 0 5.1 0 0 Z " fill="#FEFEFD" transform="translate(0,0)"/>
<path d="M0 0 C0.33 0 0.66 0 1 0 C1.01030746 0.6504982 1.02061493 1.3009964 1.03123474 1.97120667 C1.14115116 8.86832108 1.25554855 15.76535175 1.37231445 22.66235352 C1.41508294 25.22125461 1.45678567 27.78017378 1.49731445 30.33911133 C1.70229416 43.23764903 1.93609012 56.13548136 2.41015625 69.02734375 C2.45323158 70.43966026 2.45323158 70.43966026 2.49717712 71.88050842 C2.68258893 76.38166488 3.07478415 79.85774717 5 84 C4.5625 86.1875 4.5625 86.1875 4 88 C4.33 88.66 4.66 89.32 5 90 C6.98 89.01 6.98 89.01 9 88 C9.98120464 91.05263664 9.98120464 92.94736336 9 96 C12.75670331 96.96600942 15.24249781 96.77076968 19 96 C20.33568021 96.32380126 21.66923011 96.65657551 23 97 C23.639375 96.835 24.27875 96.67 24.9375 96.5 C27.54432269 95.86804299 29.39040717 96.47808143 32 97 C35.00652461 96.57049648 35.80036434 96.19963566 38 94 C38.33 93.319375 38.66 92.63875 39 91.9375 C40 90 40 90 42 89 C42.02687279 90.81242052 42.04633715 92.62495233 42.0625 94.4375 C42.07410156 95.44683594 42.08570313 96.45617187 42.09765625 97.49609375 C42 100 42 100 41 101 C38.13905783 101.11349161 35.30316544 101.16418492 32.44140625 101.16796875 C31.58191879 101.17129715 30.72243134 101.17462555 29.8368988 101.17805481 C28.01521339 101.1831277 26.19351864 101.18546302 24.37182617 101.18530273 C21.5778071 101.18748803 18.78418343 101.20563644 15.99023438 101.22460938 C14.22395969 101.2275434 12.45768312 101.22952814 10.69140625 101.23046875 C9.85178848 101.23765427 9.01217072 101.24483978 8.14710999 101.25224304 C2.22882181 101.22882181 2.22882181 101.22882181 0 99 C-0.24609566 97.20778465 -0.24609566 97.20778465 -0.24050903 95.00106812 C-0.24325836 94.16531754 -0.24600769 93.32956696 -0.24884033 92.4684906 C-0.24164978 91.54995804 -0.23445923 90.63142548 -0.22705078 89.68505859 C-0.22734283 88.71916306 -0.22763489 87.75326752 -0.22793579 86.75810242 C-0.22653872 83.55479045 -0.21095974 80.351709 -0.1953125 77.1484375 C-0.19158371 74.93169278 -0.18873611 72.71494642 -0.18673706 70.49819946 C-0.17909004 64.65543084 -0.15943237 58.81276118 -0.1373291 52.97003174 C-0.11689368 47.01128478 -0.10774028 41.05252188 -0.09765625 35.09375 C-0.07618749 23.39578978 -0.04203867 11.69790311 0 0 Z " fill="#0F0F0F" transform="translate(118,138)"/>
<path d="M0 0 C0 4.95 0 9.9 0 15 C-4.95 15 -9.9 15 -15 15 C-15.72437834 11.37810828 -16.11585593 8.76234736 -16.0625 5.1875 C-16.05347656 4.39730469 -16.04445313 3.60710937 -16.03515625 2.79296875 C-16.02355469 2.20128906 -16.01195312 1.60960937 -16 1 C-10.94354068 -2.21551539 -5.70707088 -0.62033379 0 0 Z " fill="#FEFEFD" transform="translate(360,345)"/>
<path d="M0 0 C3.5844087 0.32793526 5.82185642 2.18046734 8.625 4.3125 C16.50159555 9.94853904 24.50501568 12.46464083 34 14 C34 14.33 34 14.66 34 15 C22.45 15 10.9 15 -1 15 C-1.94708607 10.26456964 -2.23436605 6.76544308 -2 2 C-1.34 1.34 -0.68 0.68 0 0 Z " fill="#FCFCFB" transform="translate(16,345)"/>
<path d="M0 0 C2 1 2 1 2 1 Z M-16 1 C-10.72 1 -5.44 1 0 1 C-0.33 3.31 -0.66 5.62 -1 8 C-1.05931476 9.47812375 -1.08844887 10.95841423 -1.0625 12.4375 C-1.041875 13.613125 -1.02125 14.78875 -1 16 C-5.95 16 -10.9 16 -16 16 C-16 11.05 -16 6.1 -16 1 Z " fill="#EDEDEC" transform="translate(16,344)"/>
<path d="M0 0 C4.95 0 9.9 0 15 0 C15 4.95 15 9.9 15 15 C10.05 15 5.1 15 0 15 C0 10.05 0 5.1 0 0 Z " fill="#EDEDEC" transform="translate(345,0)"/>
<path d="M0 0 C10.89 0 21.78 0 33 0 C33 0.33 33 0.66 33 1 C32.31035156 1.17015625 31.62070312 1.3403125 30.91015625 1.515625 C21.0026257 4.07065345 13.352292 7.42271271 5.1640625 13.609375 C3 15 3 15 0 15 C0 10.05 0 5.1 0 0 Z " fill="#EDEDEC" transform="translate(15,0)"/>
<path d="M0 0 C4.62 0 9.24 0 14 0 C14.33 0.99 14.66 1.98 15 3 C13.7421875 5.09375 13.7421875 5.09375 11.875 7.5 C6.62994147 14.67138742 3.10800923 22.37632586 1 31 C0.67 31 0.34 31 0 31 C0 20.77 0 10.54 0 0 Z " fill="#EDEDEB" transform="translate(0,15)"/>
<path d="M0 0 C0.33 0 0.66 0 1 0 C1.02467609 5.51757479 1.04284856 11.03511761 1.05493164 16.55273438 C1.05996763 18.43066975 1.06679671 20.3086012 1.07543945 22.18652344 C1.08753713 24.88217132 1.09323557 27.57776747 1.09765625 30.2734375 C1.10281754 31.11619232 1.10797882 31.95894714 1.11329651 32.82723999 C1.11387171 38.77225659 1.11387171 38.77225659 0 41 C-2.31 40.67 -4.62 40.34 -7 40 C-5 38 -5 38 -3 37 C-2.11563266 32.42638481 -1.84408444 27.91075962 -1.71875 23.26171875 C-1.68136719 22.03001953 -1.64398438 20.79832031 -1.60546875 19.52929688 C-1.53462046 16.94858236 -1.464316 14.36785287 -1.39453125 11.78710938 C-1.35714844 10.56185547 -1.31976563 9.33660156 -1.28125 8.07421875 C-1.25095703 6.95619873 -1.22066406 5.83817871 -1.18945312 4.6862793 C-1 2 -1 2 0 0 Z " fill="#1F1F1F" transform="translate(202,96)"/>
<path d="M0 0 C2 2 2 2 2.1953125 3.9453125 C2.13020833 5.96354167 2.06510417 7.98177083 2 10 C-2.95 10 -7.9 10 -13 10 C-12.67 9.34 -12.34 8.68 -12 8 C-11.34 8 -10.68 8 -10 8 C-9.67 7.34 -9.34 6.68 -9 6 C-7.88645827 5.10414312 -6.7352679 4.25429261 -5.5625 3.4375 C-4.63630859 2.78587891 -4.63630859 2.78587891 -3.69140625 2.12109375 C-2 1 -2 1 0 0 Z " fill="#ECECEB" transform="translate(343,350)"/>
<path d="M0 0 C0.99 -0.33 1.98 -0.66 3 -1 C3.66 -0.67 4.32 -0.34 5 0 C5.99 -0.33 6.98 -0.66 8 -1 C8.66 -0.67 9.32 -0.34 10 0 C10.99 -0.33 11.98 -0.66 13 -1 C13.66 -0.67 14.32 -0.34 15 0 C17.3381615 -0.29758419 19.67182036 -0.63239269 22 -1 C25.92896395 -1 29.19893228 0.00299863 33 1 C33 1.33 33 1.66 33 2 C12.21 2.495 12.21 2.495 -9 3 C-4.5 -1.5 -4.5 -1.5 0 0 Z " fill="#151515" transform="translate(167,135)"/>
<path d="M0 0 C0.99 0.33 1.98 0.66 3 1 C2.67 2.65 2.34 4.3 2 6 C-4.27 6 -10.54 6 -17 6 C-17 5.67 -17 5.34 -17 5 C-15.94039063 4.72285156 -14.88078125 4.44570313 -13.7890625 4.16015625 C-12.40101131 3.794386 -11.01299213 3.42849428 -9.625 3.0625 C-8.92632812 2.88009766 -8.22765625 2.69769531 -7.5078125 2.50976562 C-3.66044902 1.51487491 -3.66044902 1.51487491 0 0 Z " fill="#F9F9F7" transform="translate(328,354)"/>
<path d="M0 0 C0.33 0 0.66 0 1 0 C1 6.6 1 13.2 1 20 C-0.98 20 -2.96 20 -5 20 C-4.80664062 19.39414062 -4.61328125 18.78828125 -4.4140625 18.1640625 C-2.54867496 12.16157783 -1.11840293 6.1841103 0 0 Z " fill="#F8F8F5" transform="translate(359,310)"/>
<path d="M0 0 C5.94 0 11.88 0 18 0 C18 0.33 18 0.66 18 1 C17.26394531 1.19335938 16.52789062 1.38671875 15.76953125 1.5859375 C14.79371094 1.84632812 13.81789063 2.10671875 12.8125 2.375 C11.84957031 2.63023438 10.88664062 2.88546875 9.89453125 3.1484375 C6.99455573 3.93665773 6.99455573 3.93665773 4.32421875 5.1640625 C2 6 2 6 -1 5 C-0.67 3.35 -0.34 1.7 0 0 Z " fill="#FBFBF9" transform="translate(30,0)"/>
<path d="M0 0 C4.47915328 -0.02886338 8.95828291 -0.04675187 13.4375 -0.0625 C14.71689453 -0.07087891 15.99628906 -0.07925781 17.31445312 -0.08789062 C19.13686523 -0.09272461 19.13686523 -0.09272461 20.99609375 -0.09765625 C22.12200928 -0.10289307 23.2479248 -0.10812988 24.40795898 -0.11352539 C27 0 27 0 28 1 C28.07319621 3.69654854 28.09242537 6.36691458 28.0625 9.0625 C28.05798828 9.82111328 28.05347656 10.57972656 28.04882812 11.36132812 C28.0370068 13.24091871 28.01907078 15.12046899 28 17 C27.34 16.67 26.68 16.34 26 16 C26.01160156 15.24074219 26.02320313 14.48148438 26.03515625 13.69921875 C26.04417969 12.70535156 26.05320312 11.71148437 26.0625 10.6875 C26.07410156 9.70136719 26.08570313 8.71523437 26.09765625 7.69921875 C26.12329862 4.90036151 26.12329862 4.90036151 25 2 C16.75 1.67 8.5 1.34 0 1 C0 0.67 0 0.34 0 0 Z " fill="#121212" transform="translate(250,95)"/>
<path d="M0 0 C12.54 0 25.08 0 38 0 C38 0.33 38 0.66 38 1 C36.88927124 1.03758423 36.88927124 1.03758423 35.75610352 1.07592773 C32.35810351 1.1929172 28.96031183 1.31517147 25.5625 1.4375 C24.39783203 1.47681641 23.23316406 1.51613281 22.03320312 1.55664062 C16.93815076 1.74322001 11.90029186 1.95881954 6.83984375 2.59765625 C3 3 3 3 0 2 C0 1.34 0 0.68 0 0 Z " fill="#3C3C3C" transform="translate(238,94)"/>
<path d="M0 0 C-0.68936071 3.91121498 -1.78250181 7.55508596 -3.0625 11.3125 C-3.42472656 12.38113281 -3.78695313 13.44976562 -4.16015625 14.55078125 C-4.43730469 15.35902344 -4.71445313 16.16726562 -5 17 C-5.33 17 -5.66 17 -6 17 C-6 11.72 -6 6.44 -6 1 C-4 0 -4 0 0 0 Z " fill="#FCFCFB" transform="translate(6,29)"/>
<path d="M0 0 C9.9 1.98 9.9 1.98 20 4 C20 4.33 20 4.66 20 5 C13.4 5 6.8 5 0 5 C0 3.35 0 1.7 0 0 Z " fill="#EDECEA" transform="translate(30,355)"/>
<path d="M0 0 C0.33 0 0.66 0 1 0 C1.20496094 1.09699219 1.40992187 2.19398438 1.62109375 3.32421875 C1.89321293 4.77864887 2.16534925 6.23307578 2.4375 7.6875 C2.57220703 8.40873047 2.70691406 9.12996094 2.84570312 9.87304688 C3.54098845 13.58688798 4.24774702 17.29716254 5 21 C3.35 21 1.7 21 0 21 C0 14.07 0 7.14 0 0 Z " fill="#ECEBE8" transform="translate(0,309)"/>
<path d="M0 0 C1.65 0 3.3 0 5 0 C5 6.27 5 12.54 5 19 C4.67 19 4.34 19 4 19 C3.52040222 16.77092605 3.0413392 14.54173703 2.5625 12.3125 C2.16224609 10.45044922 2.16224609 10.45044922 1.75390625 8.55078125 C1.14944864 5.70387985 0.56235316 2.85544374 0 0 Z " fill="#EEEEED" transform="translate(355,30)"/>
<path d="M0 0 C5.94 0 11.88 0 18 0 C17.67 1.32 17.34 2.64 17 4 C11.147205 3.48517081 5.6702363 2.54642808 0 1 C0 0.67 0 0.34 0 0 Z " fill="#EEEEEC" transform="translate(312,0)"/>
<path d="M0 0 C3.3 0.33 6.6 0.66 10 1 C10.33 1.99 10.66 2.98 11 4 C10.34 4.66 9.68 5.32 9 6 C8.67 5.67 8.34 5.34 8 5 C7.67 6.65 7.34 8.3 7 10 C6.38125 9.1028125 6.38125 9.1028125 5.75 8.1875 C4.10004068 5.92151818 4.10004068 5.92151818 1.8125 4.4375 C1.214375 3.963125 0.61625 3.48875 0 3 C0 2.01 0 1.02 0 0 Z " fill="#2A2A2A" transform="translate(237,162)"/>
<path d="M0 0 C2.625 1.4375 2.625 1.4375 5 3 C4.67 3.99 4.34 4.98 4 6 C3.34 6 2.68 6 2 6 C2 7.32 2 8.64 2 10 C1.01 9.67 0.02 9.34 -1 9 C-1.33 6.36 -1.66 3.72 -2 1 C-1.34 0.67 -0.68 0.34 0 0 Z " fill="#181818" transform="translate(239,217)"/>
<path d="M0 0 C1.65 1.65 3.3 3.3 5 5 C4.01 6.485 4.01 6.485 3 8 C0.9375 6.25 0.9375 6.25 -1 4 C-0.75 1.75 -0.75 1.75 0 0 Z " fill="#262626" transform="translate(135,149)"/>
<path d="M0 0 C0.99 0.495 0.99 0.495 2 1 C1.67 1.66 1.34 2.32 1 3 C0.67 2.01 0.34 1.02 0 0 Z M-3 1 C-2.01 1.33 -1.02 1.66 0 2 C-0.66 3.32 -1.32 4.64 -2 6 C-2.99 5.01 -3.98 4.02 -5 3 C-4.34 3 -3.68 3 -3 3 C-3 2.34 -3 1.68 -3 1 Z " fill="#292929" transform="translate(245,149)"/>
</svg>
